# xmcd
#
# Track frame offsets: 
#        150
#        22017
#        38532
#        48217
#        66778
#        93853
#        117894
#        143835
#        164140
#        178409
#        199312
#        212475
#        229050
#        240870
#        255040
#        276197
#
# Disc length: 3877 seconds
#
# Revision: 0
# Processed by: cddbd v1.5.2PL0 Copyright (c) Steve Scherf et al.
# Submitted via: ExactAudioCopy v0.99pb5
#
DISCID=d70f2310
DTITLE=Various Artist - Audiobiografija
DYEAR=2010
DGENRE=Pop-Folk
TTITLE0=Tavs superveikals - Jauns Meness
TTITLE1=Horizonts - Jauns Meness
TTITLE2=Ja kadreiz tev vairs nav kur iet - Jauns Meness
TTITLE3=Pajauta man - Jauns Meness
TTITLE4=Starp ziemu un atvasaru - Jauns Meness
TTITLE5=Labradors - Ainars Mielavs
TTITLE6=On my way to the big light - Mielavs and Waterboys
TTITLE7=Reizem - Ainars Mielavs
TTITLE8=Tu savilnoji mani - Ainars Mielavs
TTITLE9=Trava - Mielavs un Parcelaji feat Marie N
TTITLE10=Varbut - Mielavs un Parcelaji
TTITLE11=Sniegs izkust tavos matos - Mielavs un Parcelaji
TTITLE12=Zala gaisma - Mielavs un Parcelaji
TTITLE13=Mans iemesls - Mielavs un Parcelaji
TTITLE14=The carnival is over - Mielavs un Parcelaji
TTITLE15=Tumsa nakte zala zale - Ainars Mielavs un Gints Sola
EXTD=
EXTT0=
EXTT1=
EXTT2=
EXTT3=
EXTT4=
EXTT5=
EXTT6=
EXTT7=
EXTT8=
EXTT9=
EXTT10=
EXTT11=
EXTT12=
EXTT13=
EXTT14=
EXTT15=
PLAYORDER=
